<svg id="visual" viewBox="0 0 900 600" width="900" height="600" xmlns="http://www.w3.org/2000/svg" xmlns:xlink="http://www.w3.org/1999/xlink" version="1.1"><rect x="0" y="0" width="900" height="600" fill="#FFFFFF"></rect><path d="M0 513L21.5 505C43 497 86 481 128.8 479.7C171.7 478.3 214.3 491.7 257.2 485C300 478.3 343 451.7 385.8 433.3C428.7 415 471.3 405 514.2 420.2C557 435.3 600 475.7 642.8 485.5C685.7 495.3 728.3 474.7 771.2 462.8C814 451 857 448 878.5 446.5L900 445L900 601L878.5 601C857 601 814 601 771.2 601C728.3 601 685.7 601 642.8 601C600 601 557 601 514.2 601C471.3 601 428.7 601 385.8 601C343 601 300 601 257.2 601C214.3 601 171.7 601 128.8 601C86 601 43 601 21.5 601L0 601Z" fill="#0066FF" stroke-linecap="round" stroke-linejoin="miter"></path></svg>